HIERARCHY
ROOT Hips
{
    OFFSET 0.0 0.0 0.0
    CHANNELS 6 Xposition Yposition Zposition Zrotation Xrotation Yrotation
    JOINT LeftUpLeg
    {
        OFFSET 12.793965970661278 0.0 0.0
        CHANNELS 3 Zrotation Xrotation Yrotation
        JOINT LeftLeg
        {
            OFFSET 0.0 0.0 -58.55729392387683
            CHANNELS 3 Zrotation Xrotation Yrotation
            JOINT LeftFoot
            {
                OFFSET 0.0 0.0 -44.806128458501334
                CHANNELS 3 Zrotation Xrotation Yrotation
                JOINT LeftToeBase
                {
                    OFFSET 0.0 -13.07853112517025 0.0
                    CHANNELS 3 Zrotation Xrotation Yrotation
                    End Site
                    {
                        OFFSET 0 0 0
                    }
                }
            }
        }
    }
    JOINT RightUpLeg
    {
        OFFSET -12.793965970661278 0.0 0.0
        CHANNELS 3 Zrotation Xrotation Yrotation
        JOINT RightLeg
        {
            OFFSET 0.0 0.0 -58.55729392387683
            CHANNELS 3 Zrotation Xrotation Yrotation
            JOINT RightFoot
            {
                OFFSET 0.0 0.0 -44.806128458501334
                CHANNELS 3 Zrotation Xrotation Yrotation
                JOINT RightToeBase
                {
                    OFFSET 0.0 -13.07853112517025 0.0
                    CHANNELS 3 Zrotation Xrotation Yrotation
                    End Site
                    {
                        OFFSET 0 0 0
                    }
                }
            }
        }
    }
    JOINT Spine
    {
        OFFSET 0.0 0.0 12.224477482838633
        CHANNELS 3 Zrotation Xrotation Yrotation
        JOINT Spine1
        {
            OFFSET 0.0 0.0 11.970270618547488
            CHANNELS 3 Zrotation Xrotation Yrotation
            JOINT Spine2
            {
                OFFSET 0.0 0.0 11.970270618547488
                CHANNELS 3 Zrotation Xrotation Yrotation
                JOINT Spine3
                {
                    OFFSET 0.0 0.0 11.970270618547483
                    CHANNELS 3 Zrotation Xrotation Yrotation
                    JOINT Spine4
                    {
                        OFFSET 0.0 0.0 11.970270618547492
                        CHANNELS 3 Zrotation Xrotation Yrotation
                        JOINT RightShoulder
                        {
                            OFFSET -23.836093394157814 0.0 0.0
                            CHANNELS 3 Zrotation Xrotation Yrotation
                            JOINT RightArm
                            {
                                OFFSET -34.92638727471889 0.0 0.0
                                CHANNELS 3 Zrotation Xrotation Yrotation
                                JOINT RightForeArm
                                {
                                    OFFSET -33.35607652304644 0.0 0.0
                                    CHANNELS 3 Zrotation Xrotation Yrotation
                                    JOINT RightHand
                                    {
                                        OFFSET -10.614475041941617 0.0 0.0
                                        CHANNELS 3 Zrotation Xrotation Yrotation
                                        End Site
                                        {
                                            OFFSET 0 0 0
                                        }
                                    }
                                }
                            }
                        }
                        JOINT LeftShoulder
                        {
                            OFFSET 23.836093394157814 0.0 0.0
                            CHANNELS 3 Zrotation Xrotation Yrotation
                            JOINT LeftArm
                            {
                                OFFSET 34.92638727471889 0.0 0.0
                                CHANNELS 3 Zrotation Xrotation Yrotation
                                JOINT LeftForeArm
                                {
                                    OFFSET 33.35607652304644 0.0 0.0
                                    CHANNELS 3 Zrotation Xrotation Yrotation
                                    JOINT LeftHand
                                    {
                                        OFFSET 10.614475041941617 0.0 0.0
                                        CHANNELS 3 Zrotation Xrotation Yrotation
                                        End Site
                                        {
                                            OFFSET 0 0 0
                                        }
                                    }
                                }
                            }
                        }
                        JOINT Neck
                        {
                            OFFSET 0.0 0.0 11.970270628455737
                            CHANNELS 3 Zrotation Xrotation Yrotation
                            JOINT Head
                            {
                                OFFSET 0.0 0.0 25.65208562538035
                                CHANNELS 3 Zrotation Xrotation Yrotation
                                End Site
                                {
                                    OFFSET 0 0 0
                                }
                            }
                        }
                    }
                }
            }
        }
    }
}
MOTION
Frames: 7
Frame Time: 0.03333333333333333
60.563077855110166 0.07168089273618534 523.6069787979127 45.35541236711662 -78.60679713663747 45.3088586731921 -2.46939074058284 -4.011126379035372 -7.229241480202317 16.413477275960762 -12.986942006991473 17.825793705226246 -133.52392692015977 0.0 130.32301614411568 0.0 0.0 0.0 -7.173944470279986 -12.649098446982485 18.266169391576597 -7.171078451057846 -3.2247744133383325 -35.489264350869576 102.75655272517152 -1.2722218725854067e-14 -76.76586661762435 0.0 0.0 0.0 -0.43263889666146943 -9.188996340502905 0.5469784821395967 7.951386703658792e-16 0.0 0.0 7.951386703658792e-16 0.0 0.0 7.951386703658792e-16 0.0 0.0 7.951386703658792e-16 0.0 0.0 143.03448294860303 7.662197275584322 -165.37176464479555 119.06724238113381 -3.0638431614671743e-15 -7.337398421310694e-15 180.0 53.09351251036813 180.0 -1.5902773407317584e-15 0.0 0.0 -145.97479176875558 11.357756698801989 159.66050688963836 -113.90365604084131 -5.33196049803503e-15 3.468992587843336e-15 180.0 -26.134446453203363 -180.0 -1.5902773407317582e-15 6.361109362927033e-15 7.951386703658792e-16 -3.702675407213761 4.556816812599393e-15 5.450678172750399e-16 3.975693351829396e-16 0.0 0.0
60.563077855110166 0.07168089273618534 523.6069787979127 45.35541236711662 -78.60679713663747 45.3088586731921 -2.46939074058284 -4.011126379035372 -7.229241480202317 16.413477275960762 -12.986942006991473 17.825793705226246 -133.52392692015977 0.0 130.32301614411568 0.0 0.0 0.0 -7.173944470279986 -12.649098446982485 18.266169391576597 -7.171078451057846 -3.2247744133383325 -35.489264350869576 102.75655272517152 -1.2722218725854067e-14 -76.76586661762435 0.0 0.0 0.0 -0.43263889666146943 -9.188996340502905 0.5469784821395967 7.951386703658792e-16 0.0 0.0 7.951386703658792e-16 0.0 0.0 7.951386703658792e-16 0.0 0.0 7.951386703658792e-16 0.0 0.0 143.03448294860303 7.662197275584322 -165.37176464479555 119.06724238113381 -3.0638431614671743e-15 -7.337398421310694e-15 180.0 53.09351251036813 180.0 -1.5902773407317584e-15 0.0 0.0 -145.97479176875558 11.357756698801989 159.66050688963836 -113.90365604084131 -5.33196049803503e-15 3.468992587843336e-15 180.0 -26.134446453203363 -180.0 -1.5902773407317582e-15 6.361109362927033e-15 7.951386703658792e-16 -3.702675407213761 4.556816812599393e-15 5.450678172750399e-16 3.975693351829396e-16 0.0 0.0
60.563077855110166 0.07168089273618534 523.6069787979127 45.35541236711662 -78.60679713663747 45.3088586731921 -2.46939074058284 -4.011126379035372 -7.229241480202317 16.413477275960762 -12.986942006991473 17.825793705226246 -133.52392692015977 0.0 130.32301614411568 0.0 0.0 0.0 -7.173944470279986 -12.649098446982485 18.266169391576597 -7.171078451057846 -3.2247744133383325 -35.489264350869576 102.75655272517152 -1.2722218725854067e-14 -76.76586661762435 0.0 0.0 0.0 -0.43263889666146943 -9.188996340502905 0.5469784821395967 7.951386703658792e-16 0.0 0.0 7.951386703658792e-16 0.0 0.0 7.951386703658792e-16 0.0 0.0 7.951386703658792e-16 0.0 0.0 143.03448294860303 7.662197275584322 -165.37176464479555 119.06724238113381 -3.0638431614671743e-15 -7.337398421310694e-15 180.0 53.09351251036813 180.0 -1.5902773407317584e-15 0.0 0.0 -145.97479176875558 11.357756698801989 159.66050688963836 -113.90365604084131 -5.33196049803503e-15 3.468992587843336e-15 180.0 -26.134446453203363 -180.0 -1.5902773407317582e-15 6.361109362927033e-15 7.951386703658792e-16 -3.702675407213761 4.556816812599393e-15 5.450678172750399e-16 3.975693351829396e-16 0.0 0.0
60.600379014015196 0.03808086882345379 523.59605884552 44.99214657584943 -78.56944137515546 44.96960290373003 -2.509151811966962 -4.038836249870779 -7.257836544704887 16.29750077791978 -12.871292598444832 17.755946327054744 -133.57237956282924 1.5902773407317584e-14 130.0526986782798 0.0 0.0 0.0 -7.060482861645288 -12.644405876561066 18.289355871427194 -7.3651209433407905 -3.3173342607444973 -35.4999769912368 102.85381561781564 -6.3611093629270335e-15 -76.8736202593408 0.0 0.0 0.0 -0.41266779297160666 -9.245475171429707 0.5725539235905321 0.0 0.0 0.0 0.0 0.0 0.0 0.0 0.0 0.0 0.0 0.0 0.0 142.19862446464975 7.551952021936898 -164.8991336683849 118.22449987924061 -2.4491437572239175e-15 4.0942072542135645e-15 180.0 81.61034376363862 180.0 0.0 0.0 0.0 -146.00721987355877 11.39683960105126 159.7042698029415 -113.74512063494146 -8.803522045770187e-15 -1.8507901674350422e-15 180.0 -34.64000463066283 -180.0 0.0 0.0 -1.1927080055488188e-15 -3.6085865691910284 -9.052536080510339e-15 -6.829329492407363e-16 0.0 0.0 0.0
60.605747866630566 0.03673801731783897 523.5935892105102 44.91591088344493 -78.56342028627981 44.897858172396 -2.5342110907904845 -4.023174434579041 -7.210823956685881 16.341150238376617 -12.920901158859765 17.607753048247286 -133.67030011382724 -1.5902773407317584e-14 129.98262599969337 0.0 0.0 0.0 -7.046766015005406 -12.649935634818334 18.28974048332993 -7.385400711926739 -3.3284547243884792 -35.5023737037111 102.86110969852646 -9.54166404439055e-15 -76.88123077504993 0.0 0.0 0.0 -0.4085097358166572 -9.267298904901283 0.5865716170268908 0.0 0.0 0.0 0.0 0.0 0.0 0.0 0.0 0.0 0.0 0.0 0.0 142.07849467770507 7.45393176783416 -164.82841838519622 118.16443636005584 -6.274327091487785e-15 -1.904078227538271e-15 -180.0 52.77833646773064 180.0 0.0 0.0 0.0 -146.06488819312753 11.463057277609146 159.774961754032 -113.8217543064262 9.790758854165486e-15 -8.277975138190305e-15 -180.0 -37.50899844023055 -180.0 0.0 0.0 7.951386703658792e-16 -3.600859013527076 -1.3531868772102849e-15 -2.031364275817295e-15 0.0 0.0 0.0
60.61091215610504 0.03738802741281688 523.5912014007569 44.825053255214044 -78.55603398427884 44.81177956673525 -2.559983837757366 -4.009005771982647 -7.20422784945819 16.384735682616853 -12.951368478932723 17.526001101793458 -133.70793970732805 -3.1805546814635168e-15 129.93383048224666 0.0 0.0 0.0 -7.0343874211775805 -12.65987348571491 18.288375462083756 -7.404032008866708 -3.339446711153209 -35.503766921929206 102.86429174321326 1.5902773407317584e-14 -76.89005289668982 -6.3611093629270335e-15 0.0 0.0 -0.40375001904673585 -9.290770376090173 0.5991422996885505 7.951386703658792e-16 0.0 0.0 7.951386703658792e-16 0.0 0.0 7.951386703658792e-16 0.0 0.0 7.951386703658792e-16 0.0 0.0 141.97145504373458 7.4206609145799245 -164.7705283025125 118.03375451358167 -7.909455203798606e-15 8.155175597281694e-16 -180.0 29.512766321706433 180.0 -3.1805546814635168e-15 0.0 0.0 -146.12079674840172 11.546592382357495 159.84535272253618 -113.94817105803452 9.996563885760276e-16 -1.013355564167972e-14 180.0 -42.46871576358418 180.0 0.0 0.0 7.951386703658792e-16 -3.59822733473686 8.978345839021877e-15 -9.112793874862651e-16 0.0 0.0 0.0
60.61557247638703 0.03979623082559556 523.5890739440918 44.72460076729246 -78.54744241138592 44.71665298156476 -2.5862057214622696 -3.99697115747531 -7.219983937289572 16.412576778202705 -12.959299749431315 17.480113856144676 -133.71487914473389 6.3611093629270335e-15 129.88449735912207 0.0 0.0 0.0 -7.0212999476222375 -12.672363126630687 18.284860589429922 -7.419890870249847 -3.3499778004621246 -35.504126649190695 102.86316134301804 -6.3611093629270335e-15 -76.8968012894049 0.0 0.0 0.0 -0.3987567937644777 -9.316451947451107 0.6110423445333995 7.951386703658792e-16 0.0 0.0 7.951386703658792e-16 0.0 0.0 7.951386703658792e-16 0.0 0.0 7.951386703658792e-16 0.0 0.0 141.89941209642961 7.400332131748406 -164.7236445923961 117.93802502908297 1.3892915307957523e-14 1.3925557560614412e-14 -180.0 32.3083254471738 180.0 -3.1805546814635168e-15 0.0 0.0 -146.1581462470235 11.633231465832248 159.9061747809212 -114.10607343664823 0.0 -0.0 180.0 -49.77546335824243 -180.0 0.0 0.0 8.945310041616142e-16 -3.5987687104874504 1.6888364947233115e-15 5.30556604758093e-17 -3.975693351829396e-16 0.0 0.0
